<?xml version="1.0" encoding="UTF-8"?>
<svg version="1.1" xmlns="http://www.w3.org/2000/svg" width="600" height="600">
<path d="M0 0 C198 0 396 0 600 0 C600 198 600 396 600 600 C402 600 204 600 0 600 C0 402 0 204 0 0 Z " fill="#FEFEFE" transform="translate(0,0)"/>
<path d="M0 0 C6.93 0 13.86 0 21 0 C21 12.54 21 25.08 21 38 C31.89 38 42.78 38 54 38 C54 25.46 54 12.92 54 0 C60.93 0 67.86 0 75 0 C75 32.01 75 64.02 75 97 C68.07 97 61.14 97 54 97 C54 83.47 54 69.94 54 56 C43.11 56 32.22 56 21 56 C21 69.53 21 83.06 21 97 C14.07 97 7.14 97 0 97 C0 64.99 0 32.98 0 0 Z " fill="#1462DC" transform="translate(30,251)"/>
<path d="M0 0 C6.45688385 5.00621831 11.17369344 12.67110054 13.0234375 20.625 C13.0234375 22.275 13.0234375 23.925 13.0234375 25.625 C6.4234375 25.625 -0.1765625 25.625 -6.9765625 25.625 C-7.6984375 24.0575 -8.4203125 22.49 -9.1640625 20.875 C-12.21025071 14.79978521 -15.51205013 11.77983746 -21.9765625 9.625 C-25.35471148 9.27225671 -25.35471148 9.27225671 -28.9140625 9.3125 C-30.09871094 9.29574219 -31.28335938 9.27898437 -32.50390625 9.26171875 C-38.28003896 9.8659711 -42.8556304 12.60973283 -46.9765625 16.625 C-53.81767764 26.89630808 -53.94423722 37.59893901 -52.9765625 49.625 C-51.37817239 57.16026767 -47.37187852 63.30387557 -41.234375 67.94140625 C-35.50433116 71.35327883 -29.4719529 71.57799164 -22.9765625 70.625 C-15.85592751 68.39301178 -11.62008358 65.08931159 -7.9765625 58.625 C-7.4815625 56.645 -7.4815625 56.645 -6.9765625 54.625 C-0.7065625 54.625 5.5634375 54.625 12.0234375 54.625 C10.89345135 64.79487537 8.4593695 72.35431093 1.0234375 79.625 C-10.34565484 87.83715744 -22.06699526 91.23220514 -35.9765625 89.625 C-48.68751335 87.16837758 -58.40735364 81.15248044 -65.9765625 70.625 C-74.01878351 56.47967219 -76.10131226 37.21288706 -72.1015625 21.421875 C-68.19598576 10.57876062 -60.40634501 0.65860907 -50.19921875 -4.8828125 C-32.89407068 -13.01274783 -15.39513361 -10.70965816 0 0 Z " fill="#1462DC" transform="translate(189.9765625,259.375)"/>
<path d="M0 0 C6.27 0 12.54 0 19 0 C19.33 11.55 19.66 23.1 20 35 C22.64 32.69 25.28 30.38 28 28 C34.38522554 24.80738723 41.95637518 25.16586524 48.6875 27.1875 C56.57255072 30.24156894 61.00922658 34.06718408 64.75415039 41.78930664 C68.09117334 51.19637743 66.58921423 62.44060481 66.375 72.25 C66.34486175 74.65231032 66.31749278 77.05465706 66.29296875 79.45703125 C66.22728406 85.30559622 66.12397082 91.15239199 66 97 C59.73 97 53.46 97 47 97 C46.97421875 93.89335937 46.9484375 90.78671875 46.921875 87.5859375 C46.88343041 84.56745454 46.83827787 81.54914101 46.79248047 78.53076172 C46.76430587 76.43774544 46.74307391 74.34462346 46.72900391 72.25146484 C46.70752606 69.23740663 46.66085012 66.22461463 46.609375 63.2109375 C46.60814636 62.27945892 46.60691772 61.34798035 46.60565186 60.38827515 C46.48016457 54.78512025 45.80649329 51.40401416 42 47 C37.3388576 43.89257173 32.45489036 44.26285265 27 45 C23.7082528 47.43589292 22.2523173 49.62152405 20 53 C19.6742279 55.07736917 19.6742279 55.07736917 19.68115234 57.37963867 C19.66128265 58.26032516 19.64141296 59.14101166 19.62094116 60.04838562 C19.60361435 61.46882927 19.60361435 61.46882927 19.5859375 62.91796875 C19.56657135 63.89034988 19.5472052 64.86273102 19.5272522 65.86457825 C19.4674445 68.97212944 19.4210661 72.07971765 19.375 75.1875 C19.33682133 77.293636 19.29776967 79.39975637 19.2578125 81.50585938 C19.16174189 86.67044605 19.07771509 91.83510582 19 97 C12.73 97 6.46 97 0 97 C0 64.99 0 32.98 0 0 Z " fill="#1261DC" transform="translate(504,251)"/>
<path d="M0 0 C6.36131561 5.24488727 10.64537107 10.8890601 13.13671875 18.76171875 C13.13671875 23.71171875 13.13671875 28.66171875 13.13671875 33.76171875 C-3.36328125 33.76171875 -19.86328125 33.76171875 -36.86328125 33.76171875 C-33.14737523 42.95379975 -33.14737523 42.95379975 -25.86328125 48.76171875 C-16.34343136 49.50730118 -16.34343136 49.50730118 -7.86328125 45.76171875 C-7.5075 44.90578125 -7.15171875 44.04984375 -6.78515625 43.16796875 C-4.86328125 40.76171875 -4.86328125 40.76171875 -2.93774414 40.35620117 C-0.50006591 40.26867094 1.8881184 40.32675431 4.32421875 40.44921875 C5.16919922 40.47177734 6.01417969 40.49433594 6.88476562 40.51757812 C8.96950673 40.57646912 11.05333679 40.66615077 13.13671875 40.76171875 C13.56323549 46.83958232 10.82059515 50.16278953 7.13671875 54.76171875 C0.88188847 61.72515725 -6.21037629 65.17526765 -15.515625 66.140625 C-25.77022272 66.46335853 -34.31680293 65.04602403 -42.30078125 58.32421875 C-50.61667592 50.33012041 -54.8560452 42.38540007 -55.15649414 30.78540039 C-55.26250745 18.6314443 -52.9682048 10.98755436 -44.37109375 1.96484375 C-32.10684576 -8.80935542 -13.15103748 -9.47884551 0 0 Z " fill="#1462DC" transform="translate(400.86328125,283.23828125)"/>
<path d="M0 0 C25.74 0 51.48 0 78 0 C78 5.94 78 11.88 78 18 C68.43 18 58.86 18 49 18 C49 44.07 49 70.14 49 97 C42.07 97 35.14 97 28 97 C28 70.93 28 44.86 28 18 C18.76 18 9.52 18 0 18 C0 12.06 0 6.12 0 0 Z " fill="#1563DC" transform="translate(278,251)"/>
<path d="M0 0 C5.34452649 4.49426091 10.68191846 9.48572065 12.75 16.3125 C12.75 17.9625 12.75 19.6125 12.75 21.3125 C6.15 21.3125 -0.45 21.3125 -7.25 21.3125 C-8.24 19.3325 -9.23 17.3525 -10.25 15.3125 C-14.13697426 11.66846164 -18.50385733 11.81614171 -23.5859375 11.953125 C-27.29990105 12.45412888 -29.48519183 13.8312619 -32.25 16.3125 C-36.2677382 22.3391073 -35.91422408 30.27356985 -35.25 37.3125 C-34.03704041 41.44579165 -32.26992351 44.32348326 -29.1875 47.3125 C-23.24468497 49.33558597 -17.41544788 49.35655523 -11.75 46.625 C-9.11498782 44.5194402 -9.11498782 44.5194402 -8.19921875 41.6875 C-6.25 39.3125 -6.25 39.3125 -4.23095703 38.90893555 C-1.65842829 38.81925627 0.86638481 38.87774507 3.4375 39 C4.33017578 39.02255859 5.22285156 39.04511719 6.14257812 39.06835938 C8.34674272 39.12729426 10.54752672 39.20949182 12.75 39.3125 C11.70333314 48.47909819 7.99429089 53.93514263 0.9296875 59.7734375 C-8.48469727 66.42087048 -19.7442894 67.75456013 -30.96875 65.8515625 C-40.44629159 63.36517042 -47.27081728 57.68993799 -52.25 49.3125 C-57.30643741 38.73113737 -59.16272144 28.15474691 -55.3515625 16.828125 C-51.28065262 7.5314372 -44.78322286 0.70032929 -35.5625 -3.5 C-23.24972595 -7.91401334 -11.42909436 -5.93433746 0 0 Z " fill="#1462DC" transform="translate(480.25,282.6875)"/>
<path d="M0 0 C6.93 0 13.86 0 21 0 C21 26.07 21 52.14 21 79 C34.86 79 48.72 79 63 79 C63 84.94 63 90.88 63 97 C56.16815547 97.07440849 49.33654925 97.12872484 42.50439453 97.16479492 C40.1824126 97.17983911 37.86045888 97.20027945 35.53857422 97.22631836 C32.19231177 97.26289345 28.84642656 97.27977054 25.5 97.29296875 C24.4694751 97.30845261 23.4389502 97.32393646 22.37719727 97.33988953 C16.19835372 97.34131758 11.60544353 96.66426156 6 94 C1.25989808 89.25989808 -0.22321365 84.69924404 -0.24884033 78.04714966 C-0.24164978 77.279664 -0.23445923 76.51217834 -0.22705078 75.72143555 C-0.22734283 74.90140549 -0.22763489 74.08137543 -0.22793579 73.23649597 C-0.22654675 70.53646115 -0.21100567 67.83670514 -0.1953125 65.13671875 C-0.19158085 63.2605657 -0.1887346 61.3844107 -0.18673706 59.508255 C-0.17911254 54.57793772 -0.15947417 49.64773886 -0.1373291 44.71746826 C-0.11684524 39.68340659 -0.10772991 34.64932573 -0.09765625 29.61523438 C-0.07622717 19.74342926 -0.04105463 9.87174302 0 0 Z " fill="#1563DC" transform="translate(215,251)"/>
<path d="M0 0 C4.77018682 2.15283712 7.43879169 4.52211464 9.8359375 9.31640625 C9.8359375 10.63640625 9.8359375 11.95640625 9.8359375 13.31640625 C-0.0640625 13.31640625 -9.9640625 13.31640625 -20.1640625 13.31640625 C-19.03793937 5.43354435 -19.03793937 5.43354435 -15.7265625 2.94140625 C-15.10910156 2.45929688 -14.49164063 1.9771875 -13.85546875 1.48046875 C-9.5463867 -1.48513507 -4.89949516 -1.54767446 0 0 Z " fill="#F6F9FD" transform="translate(385.1640625,291.68359375)"/>
</svg>
